<?xml version="1.0" encoding="UTF-8" standalone="no"?>
<!DOCTYPE svg PUBLIC "-//W3C//DTD SVG 1.1//EN" "http://www.w3.org/Graphics/SVG/1.1/DTD/svg11.dtd">
<svg width="100%" height="100%" viewBox="0 0 40 40" version="1.1" xmlns="http://www.w3.org/2000/svg" xmlns:xlink="http://www.w3.org/1999/xlink" xml:space="preserve" xmlns:serif="http://www.serif.com/" style="fill-rule:evenodd;clip-rule:evenodd;stroke-linejoin:round;stroke-miterlimit:2;">
    <g>
        <g id="Layer1">
            <path d="M17.879,38.766C18.629,37.656 18.38,39.544 19.059,38.389C19.867,37.015 21.127,34.77 21.238,33.043C21.435,29.982 19.143,27.931 18.623,25.191C18.058,22.216 19.613,20.191 17.751,17.339C17.451,16.88 15.478,17.324 15.357,19.868C15.273,21.642 15.392,23.434 15.136,25.191C15.056,25.741 14.996,24.081 14.82,23.553C14.413,22.33 13.791,21.184 13.393,19.957C12.271,16.5 13.016,13.449 12.364,10.001C12.241,9.348 11.965,8.717 11.609,8.157C11.539,8.047 10.104,7.05 9.906,7.743C9.534,9.036 9.861,10.437 9.727,11.776C9.57,13.349 9.043,14.886 9.034,16.467C9.021,18.718 9.257,18.522 9.034,20.829C8.859,22.641 8.66,22.452 9.034,24.319C10.063,29.456 11.104,29.136 11.768,34.241C11.929,35.476 11.61,35.291 11.044,36.424C10.463,37.587 11.906,37.12 13.034,37.766C15.304,39.067 15.332,39.36 17.879,38.766ZM22.121,1.234C21.371,2.344 21.62,0.456 20.941,1.611C20.133,2.985 18.873,5.23 18.762,6.957C18.565,10.018 20.857,12.069 21.377,14.809C21.942,17.784 20.387,19.809 22.249,22.661C22.549,23.12 24.522,22.676 24.643,20.132C24.727,18.358 24.608,16.566 24.864,14.809C24.944,14.259 25.004,15.919 25.18,16.447C25.587,17.67 26.209,18.816 26.607,20.043C27.729,23.5 26.984,26.551 27.636,29.999C27.759,30.652 28.035,31.283 28.391,31.843C28.461,31.953 29.896,32.95 30.094,32.257C30.466,30.964 30.139,29.563 30.273,28.224C30.43,26.651 30.957,25.114 30.966,23.533C30.979,21.282 30.743,21.478 30.966,19.171C31.141,17.359 31.34,17.548 30.966,15.681C29.937,10.544 28.896,10.864 28.232,5.759C28.071,4.524 27.846,4.12 28.412,2.987C28.993,1.824 26.094,2.88 24.966,2.234C22.696,0.933 24.668,0.64 22.121,1.234Z" style="fill:white;"/>
        </g>
        <path d="M20,0C31.038,0 40,8.962 40,20C40,31.038 31.038,40 20,40C8.962,40 0,31.038 0,20C0,8.962 8.962,0 20,0ZM20,3C29.383,3 37,10.617 37,20C37,29.383 29.383,37 20,37C10.617,37 3,29.383 3,20C3,10.617 10.617,3 20,3Z" style="fill:white;"/>
    </g>
</svg>
